<?xml version="1.0" encoding="iso-8859-1"?>
<!-- Generator: Adobe Illustrator 16.0.0, SVG Export Plug-In . SVG Version: 6.00 Build 0)  -->
<!DOCTYPE svg PUBLIC "-//W3C//DTD SVG 1.1//EN" "http://www.w3.org/Graphics/SVG/1.1/DTD/svg11.dtd">
<svg version="1.1" id="Capa_1" xmlns="http://www.w3.org/2000/svg" xmlns:xlink="http://www.w3.org/1999/xlink" x="0px" y="0px"
	 width="45.73px" height="45.73px" viewBox="0 0 45.73 45.73" style="enable-background:new 0 0 45.73 45.73;" xml:space="preserve"
	>
<g>
	<g>
		<path d="M20.155,33.936l0.264-1.094l-1.62,1.428c-0.096,0.084-0.216,0.127-0.335,0.127c-0.134,0-0.268-0.053-0.367-0.158
			l-6.918-7.284c-0.035-0.036-0.078-0.077-0.1-0.12c-4.26,1.662-7.138,5.592-7.138,10.031v6.543c0,1.289,1.143,2.322,2.513,2.322
			h4.513v-3.798c0-0.28,0.239-0.507,0.52-0.507c0.28,0,0.519,0.227,0.519,0.507v3.798h7.4l2.064-10.103
			C20.591,35.612,19.949,34.794,20.155,33.936z"/>
		<path d="M15.902,25.58l-3.175,0.747c-0.2,0.047-0.398,0.1-0.594,0.155l6.147,6.476c0.121,0.126,0.32,0.135,0.451,0.02l3.094-2.729
			c-0.317-0.108-0.619-0.274-0.889-0.498L15.902,25.58z"/>
		<path d="M32.33,18.717c1.26-0.27,2.418-1.309,2.608-3.615c0.179-2.176-0.493-3.136-1.388-3.55c-0.023-0.618-0.094-1.2-0.125-1.755
			c-0.402-7.505-4.678-10.391-9.9-9.697c-0.763,0.102-1.516,0.128-2.276,0.006c-3.053-0.494-6.01,1.979-7.79,4.228
			c-2.124,2.682-1.342,6.942-1.349,7.149c-0.975,0.373-1.74,1.313-1.549,3.619c0.199,2.412,1.457,3.438,2.78,3.646
			c1.787,4.351,5.314,7.937,9.488,7.937C27.014,26.685,30.549,23.083,32.33,18.717z M22.829,24.655
			c-4.723,0-8.544-6.273-8.708-11.628c0.163-0.835,0.419-1.567,0.703-2.188c0.604-1.32,1.714-2.342,3.081-2.833
			c0.329-0.119,0.697,0.002,0.891,0.294s0.164,0.678-0.073,0.936c-0.026,0.028-0.052,0.057-0.078,0.083
			c-0.179,0.192-0.215,0.478-0.09,0.708c0.125,0.231,0.385,0.355,0.643,0.311C21.11,10,24.07,9.226,26.582,7.491
			c0.577-0.398,1.293-0.545,1.98-0.404c0.688,0.14,1.291,0.554,1.666,1.146c0.037,0.06,0.074,0.119,0.111,0.182
			c0.782,1.281,1.201,2.758,1.201,4.261c0-0.001,0,0,0,0C31.543,18.102,27.655,24.655,22.829,24.655z"/>
		<path d="M34.65,26.834c-0.021,0.043-0.066,0.083-0.102,0.12l-6.916,7.284c-0.101,0.105-0.234,0.158-0.369,0.158
			c-0.119,0-0.239-0.042-0.336-0.127l-1.619-1.428l0.264,1.094c0.207,0.858-0.438,1.678-1.314,1.692l2.064,10.102h7.4v-3.798
			c0-0.28,0.24-0.507,0.521-0.507s0.519,0.227,0.519,0.507v3.798h4.512c1.372,0,2.516-1.033,2.516-2.322v-6.543
			C41.788,32.426,38.91,28.495,34.65,26.834z"/>
		<path d="M33.594,26.482C33.399,26.427,33.2,26.375,33,26.327l-3.175-0.747l-5.034,4.169c-0.271,0.224-0.572,0.389-0.89,0.498
			l3.094,2.729c0.132,0.116,0.33,0.107,0.451-0.02L33.594,26.482z"/>
	</g>
</g>
<g>
</g>
<g>
</g>
<g>
</g>
<g>
</g>
<g>
</g>
<g>
</g>
<g>
</g>
<g>
</g>
<g>
</g>
<g>
</g>
<g>
</g>
<g>
</g>
<g>
</g>
<g>
</g>
<g>
</g>
</svg>
